# xmcd
#
# Track frame offsets:
#	150
#	15264
#	31641
#	50350
#	63763
#	80325
#	97557
#	111942
#	129103
#	147312
#	167234
#	185479
#	202542
#	217091
#	233704
#	250183
#	264934
#	277262
#
# Disc length: 3915 seconds
#
# Revision: 1
# Processed by: cddbd v1.5.2PL0 Copyright (c) Steve Scherf et al.
# Submitted via: audiograbber 1.83.01
#
DISCID=e20f4912
DTITLE=JURANDY - O REI DO TECHNO BREGA DO BRASIL
DYEAR=1900
DGENRE=
TTITLE0=BREGA DAS APARELHAGENS DE CASTANHAL
TTITLE1=BREGA DO CHICO PRETO
TTITLE2=BREGA DAS APARELHAGENS DE BELÉM
TTITLE3=ARALA LOIRA
TTITLE4=BREGA DA MARMITA
TTITLE5=BREGA DO DJ GERSON
TTITLE6=BREGA DO PREMIER
TTITLE7=BREGA DO PALMEIRENSE
TTITLE8=BREGA DO DJ DINHO
TTITLE9=BREGA DO TRANSASOM
TTITLE10=BREGA DO RUBI
TTITLE11=BREGA DO VIBRASOM
TTITLE12=BREGA DO WLAD
TTITLE13=BREGA DO CLUBE DO REMO
TTITLE14=BREGA DO MENGÃO
TTITLE15=BREGA DO JHON SOM
TTITLE16=LARGA DO MEU PÉ
TTITLE17=BREGA DO DJ BRASIL
EXTD=
EXTT0=
EXTT1=
EXTT2=
EXTT3=
EXTT4=
EXTT5=
EXTT6=
EXTT7=
EXTT8=
EXTT9=
EXTT10=
EXTT11=
EXTT12=
EXTT13=
EXTT14=
EXTT15=
EXTT16=
EXTT17=
PLAYORDER=
